<?xml version="1.0" encoding="utf-8"?>
<!-- Generator: Adobe Illustrator 16.0.0, SVG Export Plug-In . SVG Version: 6.00 Build 0)  -->
<!DOCTYPE svg PUBLIC "-//W3C//DTD SVG 1.1//EN" "http://www.w3.org/Graphics/SVG/1.1/DTD/svg11.dtd">
<svg version="1.1" id="Layer_1" xmlns="http://www.w3.org/2000/svg" xmlns:xlink="http://www.w3.org/1999/xlink" x="0px" y="0px"
	 width="171.677px" height="46.922px" viewBox="0 0 171.677 46.922" enable-background="new 0 0 171.677 46.922"
	 xml:space="preserve">
<g>
	<g>
		<path fill="#231F20" d="M12.079,32.986c-1.128,1.257-2.818,2.221-5.109,2.221c-3.916,0-6.97-2.886-6.97-8.658
			c0-6.837,3.716-9.292,7.437-9.292c2.221,0,3.48,0.562,4.544,1.492v-7.034h2.952c1.625,0,1.891,0.431,1.891,2.721v20.505h-3.352
			C12.708,34.941,12.28,34.608,12.079,32.986z M11.98,30.296v-8.461c-0.765-0.562-1.727-0.861-3.056-0.861
			c-1.988,0-4.014,0.994-4.014,5.34c0,3.982,1.129,5.508,3.452,5.508C9.788,31.821,10.751,31.326,11.98,30.296z"/>
		<path fill="#231F20" d="M25.319,22.367v12.575h-4.846v-17.42h3.282c0.831,0,1.327,0.366,1.495,2.092
			c1.094-1.162,2.688-2.257,4.844-2.257c0.366,0,0.729,0.067,1.062,0.165v3.815h-0.83C27.938,21.336,26.245,21.87,25.319,22.367z"/>
		<path fill="#231F20" d="M37.095,27.31c0.23,3.483,1.893,4.445,4.58,4.445c1.959,0,3.483-0.629,4.612-1.459h1.493v3.186
			c-1.395,0.797-3.354,1.693-6.837,1.693c-5.704,0-8.825-3.384-8.825-8.861c0-5.607,3.65-9.056,8.494-9.056
			c5.109,0,7.832,2.82,7.832,8.56c0,0.598-0.069,1.324-0.069,1.492H37.095z M37.161,24.39h6.503
			c-0.099-3.086-1.16-4.081-3.052-4.081C38.919,20.309,37.526,21.139,37.161,24.39z"/>
		<path fill="#231F20" d="M60.819,33.218c-1.262,1.391-2.92,1.922-5.045,1.922c-3.251,0-5.641-1.793-5.641-5.24
			c0-3.649,2.92-5.442,6.937-5.442c1.425,0,2.423,0.132,3.481,0.396v-1.66c0-1.591-0.86-2.421-3.186-2.421
			c-1.824,0-3.35,0.563-4.512,1.361h-1.357v-3.417c1.656-0.762,3.682-1.459,6.633-1.459c4.812,0,7.268,1.593,7.268,5.607v12.077
			h-2.021C61.845,34.941,61.149,34.608,60.819,33.218z M60.552,27.44c-0.761-0.131-1.593-0.196-2.486-0.196
			c-1.959,0-3.219,0.696-3.219,2.388c0,1.694,1.093,2.457,2.721,2.457c1.195,0,2.189-0.598,2.984-1.329V27.44z"/>
		<path fill="#231F20" d="M73.692,19.347c1.562-1.161,3.816-2.09,6.138-2.09c1.791,0,3.417,0.531,4.148,2.221
			c1.757-1.36,4.148-2.221,6.438-2.221c2.456,0,4.544,1.129,4.544,4.876v12.808h-4.844v-11.58c0-1.657-0.564-2.223-2.025-2.223
			c-1.391,0-2.686,0.433-3.716,0.829v12.974h-4.843v-11.58c0-1.657-0.563-2.223-2.023-2.223c-1.395,0-2.656,0.433-3.717,0.795
			v13.007h-4.846v-17.42h3.287C73.062,17.521,73.528,17.887,73.692,19.347z"/>
	</g>
	<circle fill="#00A8E1" cx="127.02" cy="23.46" r="23.46"/>
	<g>
		<path d="M157.942,13.872c0-0.598,0.495-1.127,1.129-1.127c0.629,0,1.127,0.53,1.127,1.127c0,0.63-0.498,1.129-1.127,1.129
			C158.438,15.001,157.942,14.501,157.942,13.872z M158.206,34.941V17.655h0.531c0.996,0,1.128,0.198,1.128,1.791v15.496H158.206z"
			/>
		<path d="M162.755,17.655h2.287v-4.813h1.657v4.813h4.614v1.262h-4.614v12.077c0,2.09,0.963,2.719,2.988,2.719h1.989v1.165
			c-0.531,0.099-1.525,0.196-2.555,0.196c-2.652,0-4.08-1.129-4.08-3.881V18.917h-2.287V17.655z"/>
	</g>
	<g>
		<path fill="#FFFFFF" d="M132.005,7.491v0.825c-1.213,0.19-2.102,0.613-2.663,1.269c-0.566,0.656-0.847,1.355-0.847,2.092
			c0,0.777,0.139,1.749,0.418,2.918c0.307,1.227,0.461,2.266,0.461,3.113c0,1.19-0.461,2.338-1.371,3.444
			c-0.916,1.102-2.405,1.908-4.474,2.422c2.222,0.644,3.757,1.521,4.608,2.632c0.846,1.11,1.271,2.216,1.271,3.314
			c0,0.654-0.145,1.588-0.433,2.791c-0.3,1.207-0.446,2.222-0.446,3.045c0,1.898,1.159,3.08,3.475,3.547v0.822
			c-1.062,0-1.933-0.076-2.613-0.23c-0.682-0.155-1.424-0.506-2.224-1.047c-0.802-0.543-1.425-1.218-1.88-2.023
			s-0.683-1.619-0.683-2.442c0-0.765,0.187-1.862,0.557-3.294c0.272-1.074,0.411-2.005,0.411-2.793c0-2.122-1.171-3.369-3.511-3.742
			v-1.09c1.253-0.182,2.149-0.654,2.694-1.425c0.543-0.768,0.816-1.595,0.816-2.478c0-0.773-0.129-1.671-0.387-2.683
			c-0.363-1.42-0.547-2.485-0.547-3.186c0-1.395,0.63-2.702,1.888-3.911C127.784,8.167,129.61,7.539,132.005,7.491z"/>
	</g>
</g>
</svg>
